<?xml version="1.0" encoding="UTF-8" standalone="no"?>
<!-- Created with Inkscape (http://www.inkscape.org/) -->

<svg
   xmlns:dc="http://purl.org/dc/elements/1.1/"
   xmlns:cc="http://creativecommons.org/ns#"
   xmlns:rdf="http://www.w3.org/1999/02/22-rdf-syntax-ns#"
   xmlns:svg="http://www.w3.org/2000/svg"
   xmlns="http://www.w3.org/2000/svg"
   xmlns:sodipodi="http://sodipodi.sourceforge.net/DTD/sodipodi-0.dtd"
   xmlns:inkscape="http://www.inkscape.org/namespaces/inkscape"
   width="29.588444mm"
   height="33.628784mm"
   viewBox="0 0 29.588444 33.628784"
   version="1.1"
   id="svg8"
   inkscape:version="0.92.2 5c3e80d, 2017-08-06"
   sodipodi:docname="curlyamp.svg">
  <defs
     id="defs2" />
  <sodipodi:namedview
     id="base"
     pagecolor="#ffffff"
     bordercolor="#666666"
     borderopacity="1.0"
     inkscape:pageopacity="0.0"
     inkscape:pageshadow="2"
     inkscape:zoom="0.98994949"
     inkscape:cx="308.32014"
     inkscape:cy="-143.35846"
     inkscape:document-units="mm"
     inkscape:current-layer="layer1"
     showgrid="false"
     fit-margin-top="0"
     fit-margin-left="0"
     fit-margin-right="0"
     fit-margin-bottom="0"
     inkscape:window-width="1918"
     inkscape:window-height="1058"
     inkscape:window-x="0"
     inkscape:window-y="20"
     inkscape:window-maximized="1" />
  <metadata
     id="metadata5">
    <rdf:RDF>
      <cc:Work
         rdf:about="">
        <dc:format>image/svg+xml</dc:format>
        <dc:type
           rdf:resource="http://purl.org/dc/dcmitype/StillImage" />
        <dc:title></dc:title>
      </cc:Work>
    </rdf:RDF>
  </metadata>
  <g
     inkscape:label="Layer 1"
     inkscape:groupmode="layer"
     id="layer1"
     transform="translate(-104.36434,-37.940881)">
    <path
       style="fill:#000000;stroke-width:0.35277775"
       d="m 105.86264,71.10583 c -1.04853,-0.761564 -1.04494,-2.528872 0.008,-4.091788 1.0427,-1.54726 3.67262,-3.530381 6.86934,-5.17991 1.40587,-0.725436 2.55681,-1.486242 2.55764,-1.690681 8.5e-4,-0.204438 -0.4099,-1.197316 -0.91275,-2.206394 l -0.91426,-1.834687 -1.64338,1.46017 c -3.5458,3.150515 -7.46651,3.722172 -7.46289,1.088122 0.002,-1.489682 1.13851,-3.007026 3.63753,-4.856658 l 2.2941,-1.697968 -0.1869,-1.810898 c -0.22554,-2.18525 0.47689,-3.791225 2.00352,-4.580675 2.00347,-1.036034 3.8921,-0.380056 3.8921,1.351843 0,1.064953 -0.81111,2.134529 -2.82731,3.728245 l -1.7051,1.347799 0.93422,1.31301 0.93422,1.31301 0.89101,-1.054031 c 0.49006,-0.579717 1.71652,-2.090913 2.72548,-3.358214 2.89146,-3.631831 6.65622,-5.345676 8.74142,-3.979396 1.03406,0.677539 1.16373,1.805954 0.26292,2.288049 -0.9753,0.521965 -1.95067,-0.186111 -1.68954,-1.226535 0.17289,-0.688831 0.0771,-0.847807 -0.51082,-0.847807 -2.23716,0 -4.48904,1.751655 -7.79053,6.059967 l -2.0756,2.708579 1.22577,1.861243 c 0.67418,1.023683 1.28476,2.027323 1.35685,2.23031 0.19138,0.53888 7.79287,-3.317265 10.37925,-5.265275 3.97825,-2.996329 6.05443,-6.926711 5.63318,-10.664061 -0.53236,-4.723102 -6.22794,-6.612953 -10.62544,-3.525626 -0.70491,0.494893 -0.96887,0.56138 -0.85603,0.215616 0.0897,-0.274955 0.86587,-0.895212 1.72474,-1.378349 1.24822,-0.702151 2.05714,-0.879136 4.03103,-0.881944 4.50166,-0.0064 6.91482,2.015572 7.16897,6.00684 0.3456,5.427538 -3.91601,10.059782 -13.58664,14.768278 l -3.55039,1.728634 0.34816,1.260909 c 0.47546,1.721979 -0.18434,4.504368 -1.48875,6.278086 -1.42703,1.940462 -4.12794,3.338872 -6.83492,3.538811 -1.63658,0.120879 -2.35843,0.01923 -2.95851,-0.416624 z m 5.03011,-0.841653 c 1.91762,-0.871154 3.55894,-2.835829 4.21516,-5.045578 0.64496,-2.171795 0.7042,-3.821497 0.13724,-3.821497 -0.85316,0 -4.91746,2.551451 -6.78901,4.261945 -2.08814,1.908435 -2.83419,3.699997 -1.97293,4.737755 0.59174,0.712995 2.68684,0.649981 4.40954,-0.132625 z M 109.67413,58.27181 c 0.86261,-0.554744 1.93832,-1.411994 2.39047,-1.904999 l 0.82211,-0.896374 -0.95718,-1.44639 c -0.52645,-0.795514 -1.08361,-1.446389 -1.23815,-1.446389 -0.15453,0 -1.24469,0.917042 -2.42256,2.03787 -1.70873,1.625971 -2.14159,2.255826 -2.14159,3.116204 0,0.593083 0.10583,1.184166 0.23518,1.313518 0.49941,0.499413 1.80753,0.193906 3.31172,-0.77344 z m 4.44215,-9.801013 c 0.50668,-0.940858 0.53141,-1.224075 0.14729,-1.686914 -0.67577,-0.814255 -1.35855,-0.685514 -2.51904,0.474972 -1.01125,1.011248 -1.31906,2.394254 -0.82149,3.690908 0.17498,0.455985 0.40631,0.389599 1.39701,-0.4009 0.65302,-0.521057 1.46132,-1.456187 1.79623,-2.078066 z"
       id="path880"
       inkscape:connector-curvature="0" />
  </g>
</svg>
